<svg width="46" height="47" viewBox="0 0 46 47" fill="none" xmlns="http://www.w3.org/2000/svg">
  <g opacity="0.2" clip-path="url(#clip0_3_66)">
    <path
      d="M30.9224 23.4814C25.1291 23.4814 24.618 27.0596 24.618 29.6154C24.618 23.8221 21.5509 23.4814 17.9727 23.4814C24.618 23.4814 24.618 19.5624 24.618 17.1769C24.618 22.6294 27.8554 23.4814 30.9224 23.4814Z"
      fill="#F4F4F4" stroke="#F4F4F4" />
    <path d="M0 22.9781V23.9781H18V22.9781H0Z" fill="#F4F4F4" />
    <path
      d="M9.93713 19.1355C10.9514 15.3501 13.2829 12.0507 16.5123 9.8306C19.7417 7.61049 23.6571 6.61528 27.5547 7.02391C31.4522 7.43255 35.0762 9.21822 37.7749 12.0599C40.4736 14.9015 42.07 18.6127 42.2771 22.5261C42.4842 26.4396 41.2884 30.2985 38.9047 33.4091C36.5211 36.5198 33.1059 38.678 29.2732 39.4957C25.4406 40.3135 21.4419 39.7371 17.9962 37.8703C14.5505 36.0034 11.8839 32.9686 10.4757 29.3114"
      stroke="#F4F4F4" stroke-width="1.5" stroke-linecap="round" />
  </g>
  <defs>
    <clipPath id="clip0_3_66">
      <rect width="46" height="46" fill="white" transform="translate(0 0.279968)" />
    </clipPath>
  </defs>
</svg>
